<svg xmlns="http://www.w3.org/2000/svg" xmlns:xlink="http://www.w3.org/1999/xlink"><defs>
<clipPath id="clip0_3002_1826">
<rect width="10" height="10" fill="white"/>
</clipPath>
</defs><symbol id="arrow-big" viewBox="0 0 10 10"><g fill="none">
<g clip-path="url(#clip0_3002_1826)">
<path d="M1 9L9 1M9 1H1.05298M9 1V8.94702" stroke="white"/>
</g>

</g></symbol><symbol id="arrow-small" viewBox="0 0 22 22"><g fill="none">
<path d="M21 7L11 16L1 7" stroke="#ffffff"/>
</g></symbol><symbol id="check" viewBox="0 0 22 22"><g fill="none">
<path d="M1 9.5L8.36842 20L21 2" stroke="#316DC2" stroke-linecap="round" stroke-linejoin="round"/>
</g></symbol><symbol id="icon-close" viewBox="0 0 20 20"><g fill="none"><path d="M.293 18.291a1 1 0 101.414 1.414L10 11.413l8.292 8.292a1 1 0 101.414-1.414l-8.292-8.292 8.292-8.292A1 1 0 1018.291.293L9.999 8.585 1.707.293A1 1 0 10.293 1.707L8.585 10 .293 18.291z"/></g></symbol><symbol id="odnoklassniki" viewBox="0 0 16 16"><g fill="none">
<path d="M8.00022 2.42035C8.96235 2.42035 9.7448 3.18736 9.7448 4.1305C9.7448 5.0708 8.96235 5.83781 8.00022 5.83781C7.0381 5.83781 6.25565 5.0708 6.25565 4.1305C6.25565 3.18736 7.0381 2.42035 8.00022 2.42035ZM8.00022 8.25816C10.3244 8.25816 12.2139 6.40597 12.2139 4.1305C12.2139 1.85219 10.3244 0 8.00022 0C5.67606 0 3.78948 1.85219 3.78948 4.1305C3.78948 6.40597 5.67606 8.25816 8.00022 8.25816ZM9.70422 11.6273C10.562 11.4342 11.3879 11.1018 12.1501 10.6331C12.7268 10.278 12.9007 9.53083 12.5384 8.96551C12.1733 8.39735 11.414 8.22691 10.8344 8.58485C9.11014 9.6473 6.8903 9.6473 5.16312 8.58485C4.58642 8.22691 3.82426 8.39735 3.46201 8.96551C3.09977 9.53083 3.27365 10.278 3.85034 10.6331C4.6125 11.1018 5.43842 11.4342 6.29622 11.6273L3.94018 13.934C3.45912 14.4056 3.45912 15.1726 3.94018 15.6442C4.18361 15.88 4.49659 15.9993 4.81246 15.9993C5.12834 15.9993 5.44422 15.88 5.68765 15.6442L8.00022 13.3772L10.3157 15.6442C10.7968 16.1186 11.5763 16.1186 12.0603 15.6442C12.5413 15.1726 12.5413 14.4056 12.0603 13.934L9.70422 11.6273Z" fill="white"/>
</g></symbol><symbol id="reddit" viewBox="0 0 16 16"><g fill="none">
<path d="M9.41454 0.36377C8.94811 0.36377 8.51042 0.612213 8.22968 0.970494C7.94894 1.32878 7.7942 1.76551 7.68146 2.22579C7.5024 2.96589 7.44714 3.78706 7.43387 4.52716C6.12301 4.61869 4.93594 5.02666 3.95002 5.65692C3.54991 5.30387 3.06801 5.10773 2.606 5.11296C2.07989 5.11819 1.5803 5.35617 1.20892 5.84521C0.499333 6.77884 0.581124 8.30611 1.40345 9.21358C1.35261 9.49341 1.31503 9.78108 1.31503 10.0714C1.31503 13.1468 4.30814 15.6365 7.99978 15.6365C11.6914 15.6365 14.6845 13.1442 14.6845 10.0714C14.6845 9.78108 14.6469 9.49341 14.5961 9.21358C15.4184 8.30611 15.5002 6.77884 14.7906 5.84521C14.4193 5.35617 13.9197 5.11819 13.3936 5.11296C12.9315 5.10773 12.4496 5.30387 12.0495 5.65692C11.068 5.02927 9.8876 4.6213 8.58337 4.52716C8.60105 3.84459 8.64747 3.13587 8.7779 2.60237C8.85969 2.26763 8.95695 2.02442 9.06085 1.89104C9.16475 1.75767 9.2399 1.70275 9.41454 1.70275C9.79255 1.70275 9.84118 1.83089 10.0689 2.1421C10.1838 2.29901 10.3165 2.49515 10.5287 2.68606C10.7409 2.87697 11.0548 3.04173 11.3952 3.04173V1.70275C11.3002 1.70275 11.2825 1.70013 11.2184 1.63998C11.1543 1.57983 11.0658 1.44123 10.9354 1.2634C10.6746 0.905115 10.1683 0.36377 9.41454 0.36377ZM13.0929 0.489299C12.2131 0.489299 11.5013 1.33139 11.5013 2.37224C11.5013 3.41308 12.2131 4.25518 13.0929 4.25518C13.9727 4.25518 14.6845 3.41308 14.6845 2.37224C14.6845 1.33139 13.9727 0.489299 13.0929 0.489299ZM13.0929 1.15879C13.6588 1.15879 14.1186 1.70275 14.1186 2.37224C14.1186 3.04173 13.6588 3.58569 13.0929 3.58569C12.527 3.58569 12.0672 3.04173 12.0672 2.37224C12.0672 1.70275 12.527 1.15879 13.0929 1.15879ZM7.99978 5.57323C11.1321 5.57323 13.7826 7.63662 13.7826 10.0714C13.7826 12.5087 11.1321 14.5695 7.99978 14.5695C4.86741 14.5695 2.21694 12.5087 2.21694 10.0714C2.21694 7.63662 4.86741 5.57323 7.99978 5.57323ZM2.62369 6.17996C2.78064 6.18257 2.94422 6.22442 3.10117 6.30549C2.53305 6.81545 2.0821 7.40125 1.77483 8.0629C1.56261 7.54509 1.62009 6.89914 1.88094 6.55655C2.07104 6.30549 2.3341 6.17734 2.62369 6.17996ZM13.3759 6.17996C13.6655 6.17734 13.9285 6.30549 14.1186 6.55655C14.3795 6.89914 14.4369 7.54509 14.2247 8.0629C13.9175 7.40125 13.4665 6.81545 12.8984 6.30549C13.0553 6.22442 13.2189 6.18257 13.3759 6.17996ZM5.73616 7.85368C5.17026 7.85368 4.71046 8.39764 4.71046 9.06713C4.71046 9.73662 5.17026 10.2806 5.73616 10.2806C6.30206 10.2806 6.76186 9.73662 6.76186 9.06713C6.76186 8.39764 6.30206 7.85368 5.73616 7.85368ZM10.2634 7.85368C9.69749 7.85368 9.23769 8.39764 9.23769 9.06713C9.23769 9.73662 9.69749 10.2806 10.2634 10.2806C10.8293 10.2806 11.2891 9.73662 11.2891 9.06713C11.2891 8.39764 10.8293 7.85368 10.2634 7.85368ZM5.18794 11.9752C5.54826 12.8565 6.66239 13.7117 7.99978 13.7117C9.33717 13.7117 10.469 12.8565 10.8293 11.9752C10.175 12.4747 9.14264 12.8121 7.99978 12.8121C6.85692 12.8121 5.84227 12.4747 5.18794 11.9752Z" fill="white"/>
</g></symbol><symbol id="star" viewBox="0 0 22 22"><g fill="none">
<path d="M11 0L14.0138 5.47476L20 5.5L17.0275 11L20 16.5L14.0138 16.5252L11 22L7.98623 16.5252L2 16.5L4.97246 11L2 5.5L7.98623 5.47476L11 0Z" fill="#316DC2"/>
</g></symbol><symbol id="vk" viewBox="0 0 16 16"><g fill="none">
<path d="M15.8574 11.4204C15.8144 11.3516 15.5484 10.799 14.2683 9.6632C12.9282 8.47389 13.1082 8.66701 14.7223 6.61056C15.7054 5.35814 16.0984 4.59331 15.9754 4.26634C15.8584 3.95467 15.1353 4.03689 15.1353 4.03689L12.7312 4.05028C12.7312 4.05028 12.5531 4.02733 12.4201 4.10286C12.2911 4.17743 12.2081 4.34952 12.2081 4.34952C12.2081 4.34952 11.8271 5.31895 11.3191 6.14305C10.248 7.8821 9.81894 7.97388 9.64393 7.86584C9.2369 7.6144 9.33891 6.85435 9.33891 6.31514C9.33891 4.62964 9.60593 3.92695 8.81787 3.7453C8.55585 3.68507 8.36384 3.64492 7.69479 3.63822C6.83672 3.62962 6.10967 3.64109 5.69864 3.83326C5.42462 3.96137 5.21361 4.24722 5.34262 4.26348C5.50163 4.28355 5.86165 4.35621 6.05267 4.60478C6.29969 4.92506 6.29069 5.64591 6.29069 5.64591C6.29069 5.64591 6.4327 7.6297 5.95966 7.87636C5.63464 8.04558 5.1896 7.70045 4.23453 6.12202C3.7455 5.31417 3.37547 4.42027 3.37547 4.42027C3.37547 4.42027 3.30447 4.25391 3.17746 4.165C3.02345 4.05697 2.80743 4.02255 2.80743 4.02255L0.521262 4.03594C0.521262 4.03594 0.178236 4.0455 0.0522271 4.18795C-0.0597811 4.3151 0.0432264 4.57706 0.0432264 4.57706C0.0432264 4.57706 1.83336 8.58001 3.85951 10.5982C5.71864 12.4482 7.8288 12.3267 7.8288 12.3267H8.78487C8.78487 12.3267 9.07389 12.2961 9.2209 12.1441C9.35691 12.0045 9.35191 11.7426 9.35191 11.7426C9.35191 11.7426 9.33291 10.516 9.92895 10.3353C10.516 10.1575 11.2701 11.5208 12.0691 12.0457C12.6732 12.4424 13.1322 12.3554 13.1322 12.3554L15.2693 12.3267C15.2693 12.3267 16.3874 12.2608 15.8574 11.4204Z" fill="white"/>
</g></symbol></svg>